<?xml version="1.0" encoding="utf-8"?>
<!-- Generator: Adobe Illustrator 21.1.0, SVG Export Plug-In . SVG Version: 6.00 Build 0)  -->
<svg version="1.1" id="レイヤー_1" xmlns="http://www.w3.org/2000/svg" xmlns:xlink="http://www.w3.org/1999/xlink" x="0px"
	 y="0px" viewBox="0 0 58.2 53.4" style="enable-background:new 0 0 58.2 53.4;" xml:space="preserve">
<style type="text/css">
	.st0{fill:#5BA998;}
	.st1{fill:#FBC647;}
	.st2{fill:#FDD35C;}
	.st3{fill:#C39020;}
	.st4{fill:#F8B62D;}
	.st5{fill:#A57916;}
</style>
<circle class="st0" cx="29" cy="27.6" r="25.2"/>
<polygon class="st1" points="29.8,51.4 5.7,42.9 5.7,11.7 29.8,20.2 "/>
<polygon class="st2" points="29.8,3.2 53.9,11.7 29.8,20.2 5.7,11.7 "/>
<polygon class="st3" points="44.8,14.9 41.8,16 38.8,17 14.7,8.5 17.7,7.5 20.7,6.4 "/>
<polygon class="st4" points="53.9,42.9 29.8,51.4 29.8,20.2 53.9,11.7 "/>
<polygon class="st5" points="38.8,32.6 38.8,30.7 38.8,28.7 38.8,26.8 38.8,24.8 38.8,22.9 38.8,20.9 38.8,19 38.8,17 39.6,16.8 
	40.3,16.5 41.1,16.2 41.8,16 42.6,15.7 43.3,15.4 44.1,15.2 44.8,14.9 44.8,16.8 44.8,18.8 44.8,20.7 44.8,22.7 44.8,24.6 
	44.8,26.6 44.8,28.5 44.8,30.5 44.1,29.3 43.3,31 42.6,29.9 41.8,31.6 41.1,30.4 40.3,32.1 39.6,30.9 "/>
</svg>
