<?xml version="1.0" encoding="utf-8"?>
<!-- Generator: Adobe Illustrator 21.1.0, SVG Export Plug-In . SVG Version: 6.00 Build 0)  -->
<svg version="1.1" id="レイヤー_1" xmlns="http://www.w3.org/2000/svg" xmlns:xlink="http://www.w3.org/1999/xlink" x="0px"
	 y="0px" viewBox="0 0 58.2 53.4" style="enable-background:new 0 0 58.2 53.4;" xml:space="preserve">
<style type="text/css">
	.st0{fill:#5BA998;}
	.st1{fill:#6B6562;}
	.st2{fill:#0069A0;}
	.st3{fill:#403937;}
	.st4{fill:#FFFFFF;}
	.st5{fill:#FDD35C;}
	.st6{fill:#A0C9DD;}
	.st7{fill:#67A8BF;}
	.st8{fill:#CCCCCC;}
	.st9{fill:#B5B5B6;}
</style>
<circle class="st0" cx="29" cy="27.6" r="25.2"/>
<rect x="22.6" y="31.7" class="st1" width="31.2" height="7.8"/>
<polygon class="st2" points="7,39.5 2.7,39.5 2.7,30.3 9.8,17.5 21.1,17.5 21.1,31.7 14.8,31.7 "/>
<g>
	<path class="st0" d="M22.6,39.5c0-4.3-3.5-7.8-7.8-7.8c-4.3,0-7.8,3.5-7.8,7.8H22.6z"/>
	<circle class="st3" cx="14.8" cy="39.5" r="6.4"/>
	<circle class="st4" cx="14.8" cy="39.5" r="2.8"/>
</g>
<g>
	<path class="st5" d="M4.1,33.1c0.8,0,1.4,0.6,1.4,1.4c0,0.8-0.6,1.4-1.4,1.4V33.1z"/>
	<polygon class="st5" points="2.7,35.9 3.4,35.9 4.1,35.9 4.8,34.5 4.1,33.1 3.4,33.1 2.7,33.1 2.7,34.5 	"/>
</g>
<polygon class="st6" points="11.5,20.4 7.1,28.2 8.8,28.2 16.6,20.4 "/>
<polygon class="st7" points="8.8,28.2 18.3,28.2 18.3,20.4 16.6,20.4 "/>
<g>
	<circle class="st3" cx="42.4" cy="39.5" r="6.4"/>
	<circle class="st4" cx="42.4" cy="39.5" r="2.8"/>
</g>
<path class="st4" d="M11.5,20.4l-4.3,7.8h11.2v-7.8H11.5z M17.7,27.6H8.1l3.7-6.7h5.9V27.6z"/>
<path class="st4" d="M25.4,9c-1.6,0-2.8,1.3-2.8,2.8v22.7h4.3L52.3,9H25.4z"/>
<path class="st8" d="M53.7,9h-1.4L26.8,34.5h29.8V11.9C56.6,10.3,55.3,9,53.7,9z"/>
<polygon class="st8" points="25.4,11.4 25.4,12.4 49,12.4 50,11.4 "/>
<polygon class="st9" points="53.7,11.4 50,11.4 49,12.4 53.7,12.4 "/>
<polygon class="st9" points="53.7,15.7 53.7,14.7 46.7,14.7 45.7,15.7 "/>
<polygon class="st8" points="25.4,15.7 45.7,15.7 46.7,14.7 25.4,14.7 "/>
<polygon class="st9" points="53.7,19 53.7,18 43.4,18 42.4,19 "/>
<polygon class="st8" points="25.4,19 42.4,19 43.4,18 25.4,18 "/>
<polygon class="st8" points="25.4,22.3 39.1,22.3 40.1,21.3 25.4,21.3 "/>
<polygon class="st9" points="53.7,22.3 53.7,21.3 40.1,21.3 39.1,22.3 "/>
<polygon class="st8" points="25.4,25.6 35.8,25.6 36.8,24.6 25.4,24.6 "/>
<polygon class="st9" points="53.7,25.6 53.7,24.6 36.8,24.6 35.8,25.6 "/>
<polygon class="st9" points="53.7,28.9 53.7,27.9 33.5,27.9 32.5,28.9 "/>
<polygon class="st8" points="25.4,28.9 32.5,28.9 33.5,27.9 25.4,27.9 "/>
<polygon class="st9" points="53.7,32.2 53.7,31.2 30.1,31.2 29.1,32.2 "/>
<polygon class="st8" points="25.4,32.2 29.1,32.2 30.1,31.2 25.4,31.2 "/>
</svg>
