<?xml version="1.0" encoding="utf-8"?>
<!-- Generator: Adobe Illustrator 21.1.0, SVG Export Plug-In . SVG Version: 6.00 Build 0)  -->
<svg version="1.1" id="レイヤー_1" xmlns="http://www.w3.org/2000/svg" xmlns:xlink="http://www.w3.org/1999/xlink" x="0px"
	 y="0px" viewBox="0 0 58.2 53.4" style="enable-background:new 0 0 58.2 53.4;" xml:space="preserve">
<style type="text/css">
	.st0{fill:#5BA998;}
	.st1{fill:#FFFFFF;}
	.st2{fill:#DCDDDD;}
	.st3{fill:#403937;}
	.st4{fill:#EFEFEF;}
	.st5{fill:#A0C9DD;}
	.st6{fill:#67A8BF;}
	.st7{fill:#C39020;}
	.st8{fill:#A57916;}
	.st9{fill:#FDD35C;}
	.st10{fill:#F8B62D;}
	.st11{fill:#FBC647;}
</style>
<circle class="st0" cx="29" cy="27.6" r="25.2"/>
<g>
	<rect x="33.9" y="19.8" class="st1" width="1.1" height="2.2"/>
	<rect x="33.9" y="15.3" class="st1" width="1.1" height="2.2"/>
	<path class="st1" d="M37.2,8.7c-1.2,0-2.2,1-2.2,2.2v33.4c0,1.2,1,2.2,2.2,2.2h8.9V8.7H37.2z"/>
	<path class="st2" d="M55,8.7h-8.9v37.9H55c1.2,0,2.2-1,2.2-2.2V10.9C57.2,9.7,56.2,8.7,55,8.7z"/>
	<rect x="37.2" y="14.2" class="st1" width="17.8" height="26.7"/>
	<circle class="st3" cx="46.1" cy="43.8" r="1.4"/>
	<circle class="st4" cx="46.1" cy="43.8" r="1.2"/>
	<polygon class="st5" points="54.5,19.1 54.5,14.7 37.6,14.7 37.6,36.1 	"/>
	<polygon class="st6" points="37.6,36.1 37.6,40.5 54.5,40.5 54.5,19.1 	"/>
</g>
<polygon class="st7" points="1.7,20.5 3.5,37.4 17.9,35.9 15.5,13.9 "/>
<polygon class="st8" points="30.4,17.4 15.5,13.9 17.9,35.9 32.2,34.3 "/>
<rect x="5.1" y="17" transform="matrix(0.9944 -0.1061 0.1061 0.9944 -2.9122 1.329)" class="st1" width="11.9" height="22.1"/>
<rect x="16.9" y="15.7" transform="matrix(0.9944 -0.1061 0.1061 0.9944 -2.7114 2.578)" class="st4" width="11.9" height="22.1"/>
<polygon class="st9" points="32.2,34.3 31.5,27.6 22.3,32 "/>
<polygon class="st9" points="2.8,30.6 2.8,30.6 3.5,37.4 12.7,33 "/>
<polygon class="st10" points="32.2,34.3 22.3,32 17.3,30.8 18.6,42.6 33,41.1 "/>
<polygon class="st11" points="12.7,33 3.5,37.4 4.2,44.2 18.6,42.6 17.3,30.8 "/>
</svg>
