<svg id="レイヤー_1" xmlns="http://www.w3.org/2000/svg" viewBox="0 0 213 55.3"><style>.st0{fill:#e83818}</style><path class="st0" d="M12.2 11.1h15.9v7.4H12.2z"/><path d="M14.9 30.1v2.1h-4.1l.2-11.9v-7.4l-.1-4.6.2-.2 4.6.1h9.7l4.5-.1.2.2-.1 4.6v7l.1 12.3H26v-2.1H14.9zM26 11.6H14.9v5.7H26v-5.7zm0 9.1H14.9v5.9H26v-5.9zm24.5-6c3.1 4.3 6.4 7.5 10.2 9.9l-2.5 3.3c-.1.1-.2.2-.3.2-.1 0-.2-.1-.4-.2-3.5-3.2-6.2-6.2-8.3-9.6l.1 6h.8l3.5-.1.2.2v3l-.2.2-3.5-.1h-.7l.1 4.7h-4.3l.1-4.7H45l-3.5.1-.2-.2v-3l.2-.2 3.5.1h.4l.1-5.7c-2 3.5-5 6.9-8.1 9.5-.1.1-.2.2-.4.2-.1 0-.2-.1-.4-.2l-2.4-2.7c3.6-2.6 7-6.1 9.9-10.7H40l-4.5.1-.2-.2v-3.1l.2-.2 4.5.1h5.4V6.7l.2-.2h3.6l.2.2v4.7h5.7l4.5-.1.2.2v3.1l-.2.2-4.5-.1h-4.6zm33 14.9c-1.9-2.5-4.3-4.9-6.4-6.9-2.9 3.2-6.1 5.3-9.9 7.3-.3.1-.5.2-.6.2-.2 0-.3-.1-.5-.2l-3.4-2.6c6.7-3.1 12.5-7.5 15.1-13.5h-6.9l-4.3.1-.2-.2v-4l.3-.2 4.3.1h8.2l3-.1 1.8 1.7c.2.2.3.3.3.5s-.1.4-.3.7c-1.3 2.6-2.7 4.8-4 6.7 2.8 2.3 4.9 4.2 7.3 6.9v.3l-3.4 3.2h-.4zm28.3-2.3H97.1l-4.3.1-.2-.2v-4.1l.3-.2 4.1.1h14.6l4.5-.1.2.2v4.1l-.2.2-4.3-.1zm-2.7-11.2h-8.9l-4.2.1-.2-.2v-4.1l.3-.2 4.1.1h8.8l3.9-.1.2.2v4l-.2.2h-3.8zm30.8 5.7H127l-4.3.1-.2-.2v-4.1l.3-.2 4.1.1h12.9l4.5-.1.2.2v4.1l-.2.2-4.4-.1zm24-5.7c-.4 2.5-1 4.6-2 6.5-2.1 3.8-4.8 6.2-8.2 8.1-.1.1-.3.1-.3.1-.1 0-.3-.1-.5-.3l-3.3-2.4c3.8-1.9 6.4-4 8.1-7.3.7-1.3 1.2-2.9 1.5-4.7h-2.7l-4.1.1-.2-.2v-3.8l.3-.2 4.1.1h3.2c.1-1.3.1-2.8.1-4.4l.2-.2h4.3l.2.2c0 1.6 0 3.1-.1 4.4h4.8l3.6-.1.2.3c-.2 4.7-.7 10.1-1.2 12.4-.9 3.8-1.7 5.6-7 5.6-.8 0-.8-.1-1-.5l-1.7-4.1c1.1.1 2.2.1 3.2.1.9 0 1.5-.2 2-2.5.4-1.6.7-4.5.8-7.1h-4.3zm33.9 5.7h-12.9l-4.3.1-.2-.2v-4.1l.3-.2 4.1.1h12.9l4.5-.1.2.2v4.1l-.2.2-4.4-.1zm-77.6 24.1c1 .2 2.1.5 3.2.8v.1l-1.1 1.3h-.1c-1.4-.5-3.1-.9-4.6-1.2v-.1l.9-1H115l1 .9v.1c-1.3.5-3.1 1.1-4.6 1.3-.2 0-.3 0-.4-.1l-.9-1.3c1.5-.2 2.8-.5 3.9-.9h-1.8l-.1-.1.1-2v-4.4l.1-.1h9.2l.1.1v6.4l-.1.1-1.3.1zm2.6-10.7l.1.1v3.4l-.1.1h-12.1l-.1-.1v-3.5l.1-.1h10l2.1.1zm-10.2 1.4v.8h1.4v-.8h-1.4zm6.8 4.6v-.6h-5.2v.6h5.2zm0 1.7v-.6h-5.2v.6h5.2zm-5.2 1.7h5.2V44h-5.2v.6zm3.2-8H116v.8h1.5v-.8zm3.5.8v-.8h-1.5v.8h1.5zm9.7 10.8h-2v-3c-1.1.3-2.4.6-3.8.9l-.1-.1-.5-1.7.1-.1c.4-.1.7-.1 1.1-.2v-7.4h-.9l-.1-.1v-1.6l.1-.1h7.1l.1.1v1.5h3.6l1.2-.1.7.7c.1.1.1.2.1.5-.4 3-.8 4.7-1.9 6.6.7.7 1.5 1.3 2.5 1.9l-1.2 1.6c-.1.1-.1.1-.2.1s-.1 0-.2-.1c-.9-.6-1.6-1.2-2.2-1.9-.6.8-1.3 1.4-2.2 2.1-.1 0-.1.1-.1.1-.1 0-.1 0-.2-.2l-.9-1.1-.1 1.6zm-2-10.3v-1.2h-1.5v1.2h1.5zm-1.4 1.6v1.3h1.5v-1.3h-1.5zm0 2.8v1.5l1.5-.3v-1.2h-1.5zm3.4 4.2c.5-.3 1-.7 1.4-1.1.4-.3.7-.7 1-1-.8-1.4-1.3-3.1-1.6-5.4l.1-.1 1.7-.2.1.1c.1 1.5.4 2.7.8 3.7.5-1.2.8-2.5 1-4.1h-3.9l-.1-.1v-1.6h-.5v9.8zm12.6-11l.1-.1h2.4l.1.1v3.1l3.5-1 1.6-.6 1.5 1.4c.2.2.3.3.3.4 0 .1 0 .2-.1.4-.8 1.5-1.7 3-2.6 4.1-.2.3-.3.3-.6.1l-1.8-.8c.8-1 1.3-1.9 1.8-2.7l-3.4 1v2.9c0 .5 0 .7.2.9.2.2.5.3 1.4.3 1.2 0 2.6-.1 4.5-.2l.1.1v2.2l-.1.1c-1.5.1-3 .2-4.5.2-1.9 0-3.1-.1-3.8-.9-.5-.6-.4-1.3-.4-2.4v-2.4l-1.4.3-2.1.7h-.2l-.6-2.1.1-.2 2.2-.6 1.8-.5v-3.8zm13.5 2.6l1.6-1.8h.2c1 .5 2.3 1.4 3.3 2.3v.2l-1.7 2h-.1c-1-.9-2.1-1.8-3.2-2.5l-.1-.2zm12.7 1.4c0 .1.1.2.1.3 0 .1 0 .2-.2.3-2.9 3.2-6.5 5.6-10.8 7.6h-.2l-1.5-2.2v-.2c4.1-1.6 8.3-4.4 11.6-8.3l1 2.5zm15.3-1.9c.1.1.2.2.2.3 0 .1 0 .1-.1.3-.8 1.7-1.6 3.2-2.6 4.5.5.4 1 .9 1.6 1.4v.2l-1.6 1.8h-.1c-.5-.5-.9-1-1.4-1.5-1.5 1.5-3.3 2.8-5.5 3.9-.1.1-.2.1-.3.1-.1 0-.2 0-.4-.2l-1.9-1.3c2.6-1.1 4.7-2.5 6.3-4.1-.6-.4-1.2-.9-1.8-1.3v-.2l1.4-1.5h.2c.6.4 1.2.7 1.8 1.1.6-.8 1.1-1.7 1.5-2.6h-3.2c-1.1 1.5-2.2 2.7-3.3 3.8-.3.2-.4.2-.7 0l-1.8-1.1c2.2-1.7 4.1-4.1 5.3-6.7h.2l2.2.8v.2c-.2.4-.4.7-.6 1h2.2l1.3-.1 1.1 1.2zm14.3 5.2h-9.7l-.1-.1v-2.3l.1-.1h12.1l.1.1v2.3l-.1.1H199z"/></svg>