<?xml version="1.0" encoding="utf-8"?>
<!-- Generator: Adobe Illustrator 21.1.0, SVG Export Plug-In . SVG Version: 6.00 Build 0)  -->
<svg version="1.1" id="レイヤー_1" xmlns="http://www.w3.org/2000/svg" xmlns:xlink="http://www.w3.org/1999/xlink" x="0px"
	 y="0px" viewBox="0 0 213 55.3" style="enable-background:new 0 0 213 55.3;" xml:space="preserve">
<style type="text/css">
	.st0{fill:#FFFFFF;}
</style>
<g>
	<polygon class="st0" points="31,12.9 31.1,8.3 30.9,8.1 26.4,8.2 16.7,8.2 16,8.2 16,11.6 27,11.6 27,17.3 16,17.3 16,20.7 
		27,20.7 27,26.6 16,26.6 16,30.1 27,30.1 27,32.2 31.1,32.2 31,19.9 	"/>
	<polygon class="st0" points="14.9,26.6 14.9,20.7 15,20.7 15,17.3 14.9,17.3 14.9,11.6 15,11.6 15,8.2 11.1,8.1 10.9,8.3 11,12.9 
		11,20.3 10.8,32.2 14.9,32.2 14.9,30.1 15,30.1 15,26.6 	"/>
	<path class="st0" d="M45.6,6.5l-0.2,0.2v4.7H40l-4.5-0.1l-0.2,0.2v3.1l0.2,0.2l4.5-0.1h4.1c-2.9,4.6-6.3,8.1-9.9,10.7l2.4,2.7
		c0.2,0.1,0.3,0.2,0.4,0.2c0.2,0,0.3-0.1,0.4-0.2c3.1-2.6,6.1-6,8.1-9.5l-0.1,5.7H45l-3.5-0.1l-0.2,0.2v3l0.2,0.2l3.5-0.1h0.3
		l-0.1,4.7H48V6.5H45.6z"/>
	<path class="st0" d="M50.5,14.7h4.6l4.5,0.1l0.2-0.2v-3.1l-0.2-0.2l-4.5,0.1h-5.7V6.7l-0.2-0.2H48v25.7h1.5l-0.1-4.7h0.7l3.5,0.1
		l0.2-0.2v-3l-0.2-0.2l-3.5,0.1h-0.8l-0.1-6c2.1,3.4,4.8,6.4,8.3,9.6c0.2,0.1,0.3,0.2,0.4,0.2c0.1,0,0.2-0.1,0.3-0.2l2.5-3.3
		C56.9,22.2,53.6,19,50.5,14.7z"/>
	<path class="st0" d="M80,19.2c1.3-1.9,2.7-4.1,4-6.7c0.2-0.3,0.3-0.5,0.3-0.7s-0.1-0.3-0.3-0.5l-1.8-1.7l-3,0.1H71l-4.3-0.1
		l-0.3,0.2v4l0.2,0.2l4.3-0.1h6.9c-2.6,6-8.4,10.4-15.1,13.5l3.4,2.6c0.2,0.1,0.3,0.2,0.5,0.2c0.1,0,0.3-0.1,0.6-0.2
		c3.8-2,7-4.1,9.9-7.3c0.3,0.2,0.5,0.5,0.8,0.8l3.3-3.3C80.8,19.9,80.4,19.5,80,19.2z"/>
	<path class="st0" d="M81.2,20.2l-3.3,3.3c1.9,1.8,3.9,3.9,5.6,6.1h0.4l3.4-3.2v-0.3C85.3,23.8,83.4,22.1,81.2,20.2z"/>
	<path class="st0" d="M111.8,27.3H97.1l-4.3,0.1l-0.2-0.2v-4.1l0.3-0.2L97,23h14.6l4.5-0.1l0.2,0.2v4.1l-0.2,0.2L111.8,27.3z
		 M109.1,16.1h-8.9L96,16.2L95.8,16v-4.1l0.3-0.2l4.1,0.1h8.8l3.9-0.1l0.2,0.2v4l-0.2,0.2H109.1z"/>
	<path class="st0" d="M139.9,21.8H127l-4.3,0.1l-0.2-0.2v-4.1l0.3-0.2l4.1,0.1h12.9l4.5-0.1l0.2,0.2v4.1l-0.2,0.2L139.9,21.8z"/>
	<path class="st0" d="M163.9,16.1c-0.4,2.5-1,4.6-2,6.5c-2.1,3.8-4.8,6.2-8.2,8.1c-0.1,0.1-0.3,0.1-0.3,0.1c-0.1,0-0.3-0.1-0.5-0.3
		l-3.3-2.4c3.8-1.9,6.4-4,8.1-7.3c0.7-1.3,1.2-2.9,1.5-4.7h-2.7l-4.1,0.1l-0.2-0.2v-3.8l0.3-0.2l4.1,0.1h3.2
		c0.1-1.3,0.1-2.8,0.1-4.4l0.2-0.2h4.3l0.2,0.2c0,1.6,0,3.1-0.1,4.4h4.8l3.6-0.1l0.2,0.3c-0.2,4.7-0.7,10.1-1.2,12.4
		c-0.9,3.8-1.7,5.6-7,5.6c-0.8,0-0.8-0.1-1-0.5l-1.7-4.1c1.1,0.1,2.2,0.1,3.2,0.1c0.9,0,1.5-0.2,2-2.5c0.4-1.6,0.7-4.5,0.8-7.1h-4.3
		L163.9,16.1L163.9,16.1z"/>
	<path class="st0" d="M197.8,21.8h-12.9l-4.3,0.1l-0.2-0.2v-4.1l0.3-0.2l4.1,0.1h12.9l4.5-0.1l0.2,0.2v4.1l-0.2,0.2L197.8,21.8z"/>
</g>
<g>
	<path class="st0" d="M120.2,45.9c1,0.2,2.1,0.5,3.2,0.8v0.1l-1.1,1.3h-0.1c-1.4-0.5-3.1-0.9-4.6-1.2v-0.1l0.9-1H115l1,0.9v0.1
		c-1.3,0.5-3.1,1.1-4.6,1.3c-0.2,0-0.3,0-0.4-0.1l-0.9-1.3c1.5-0.2,2.8-0.5,3.9-0.9h-1.8l-0.1-0.1l0.1-2V41v-1.7l0.1-0.1h1.8h5.6
		h1.8l0.1,0.1V41v2.7v2l-0.1,0.1L120.2,45.9z M122.8,35.2L122.8,35.2l0.1,1.3v0.7v1.5l-0.1,0.1h-2.1h-7.8h-2.2l-0.1-0.1v-1.5v-0.7
		v-1.3l0.1-0.1h2.2h7.8L122.8,35.2z M112.6,36.6v0.8h1.4v-0.8H112.6z M119.4,41.2v-0.6h-5.2v0.6H119.4z M119.4,42.9v-0.6h-5.2v0.6
		H119.4z M114.2,44.6h5.2V44h-5.2V44.6z M117.4,36.6H116v0.8h1.5L117.4,36.6L117.4,36.6z M120.9,37.4v-0.8h-1.5v0.8H120.9z"/>
	<path class="st0" d="M130.6,48.2h-2v-3c-1.1,0.3-2.4,0.6-3.8,0.9l-0.1-0.1l-0.5-1.7l0.1-0.1c0.4-0.1,0.7-0.1,1.1-0.2v-7.4h-0.9
		l-0.1-0.1v-1.6l0.1-0.1h1.6h3.7h1.8l0.1,0.1v1.5h1.5h2.1l1.2-0.1l0.7,0.7c0.1,0.1,0.1,0.2,0.1,0.5c-0.4,3-0.8,4.7-1.9,6.6
		c0.7,0.7,1.5,1.3,2.5,1.9l-1.2,1.6c-0.1,0.1-0.1,0.1-0.2,0.1c-0.1,0-0.1,0-0.2-0.1c-0.9-0.6-1.6-1.2-2.2-1.9
		c-0.6,0.8-1.3,1.4-2.2,2.1c-0.1,0-0.1,0.1-0.1,0.1c-0.1,0-0.1,0-0.2-0.2l-0.9-1.1L130.6,48.2z M128.6,37.9v-1.2h-1.5v1.2H128.6z
		 M127.2,39.5v1.3h1.5v-1.3H127.2z M127.2,42.3v1.5c0.5-0.1,1-0.2,1.5-0.3v-1.2H127.2z M130.6,46.5c0.5-0.3,1-0.7,1.4-1.1
		c0.4-0.3,0.7-0.7,1-1c-0.8-1.4-1.3-3.1-1.6-5.4l0.1-0.1l1.7-0.2l0.1,0.1c0.1,1.5,0.4,2.7,0.8,3.7c0.5-1.2,0.8-2.5,1-4.1h-1.9h-2
		l-0.1-0.1v-1.6h-0.5v6.5V46.5z"/>
	<path class="st0" d="M143.2,35.5l0.1-0.1h2.4l0.1,0.1v3.1l3.5-1l1.6-0.6l1.5,1.4c0.2,0.2,0.3,0.3,0.3,0.4c0,0.1,0,0.2-0.1,0.4
		c-0.8,1.5-1.7,3-2.6,4.1c-0.2,0.3-0.3,0.3-0.6,0.1l-1.8-0.8c0.8-1,1.3-1.9,1.8-2.7l-3.4,1v2.9c0,0.5,0,0.7,0.2,0.9s0.5,0.3,1.4,0.3
		c1.2,0,2.6-0.1,4.5-0.2l0.1,0.1v2.2l-0.1,0.1c-1.5,0.1-3,0.2-4.5,0.2c-1.9,0-3.1-0.1-3.8-0.9c-0.5-0.6-0.4-1.3-0.4-2.4v-2.4L142,42
		l-2.1,0.7h-0.2l-0.6-2.1l0.1-0.2l2.2-0.6l1.8-0.5V35.5z"/>
	<path class="st0" d="M156.7,38.1l1.6-1.8h0.2c1,0.5,2.3,1.4,3.3,2.3v0.2l-1.7,2H160c-1-0.9-2.1-1.8-3.2-2.5L156.7,38.1z
		 M169.4,39.5c0,0.1,0.1,0.2,0.1,0.3s0,0.2-0.2,0.3c-2.9,3.2-6.5,5.6-10.8,7.6h-0.2l-1.5-2.2v-0.2c4.1-1.6,8.3-4.4,11.6-8.3
		L169.4,39.5z"/>
	<path class="st0" d="M184.7,37.6c0.1,0.1,0.2,0.2,0.2,0.3s0,0.1-0.1,0.3c-0.8,1.7-1.6,3.2-2.6,4.5c0.5,0.4,1,0.9,1.6,1.4v0.2
		l-1.6,1.8h-0.1c-0.5-0.5-0.9-1-1.4-1.5c-1.5,1.5-3.3,2.8-5.5,3.9c-0.1,0.1-0.2,0.1-0.3,0.1s-0.2,0-0.4-0.2l-1.9-1.3
		c2.6-1.1,4.7-2.5,6.3-4.1c-0.6-0.4-1.2-0.9-1.8-1.3v-0.2l1.4-1.5h0.2c0.6,0.4,1.2,0.7,1.8,1.1c0.6-0.8,1.1-1.7,1.5-2.6h-3.2
		c-1.1,1.5-2.2,2.7-3.3,3.8c-0.3,0.2-0.4,0.2-0.7,0l-1.8-1.1c2.2-1.7,4.1-4.1,5.3-6.7h0.2l2.2,0.8v0.2c-0.2,0.4-0.4,0.7-0.6,1h2.2
		l1.3-0.1L184.7,37.6z"/>
	<path class="st0" d="M199,42.8h-7.3h-2.4l-0.1-0.1v-2.3l0.1-0.1h2.3h7.3h2.5l0.1,0.1v2.3l-0.1,0.1H199z"/>
</g>
</svg>
