<?xml version="1.0" encoding="utf-8"?>
<!-- Generator: Adobe Illustrator 21.1.0, SVG Export Plug-In . SVG Version: 6.00 Build 0)  -->
<svg version="1.1" id="レイヤー_1" xmlns="http://www.w3.org/2000/svg" xmlns:xlink="http://www.w3.org/1999/xlink" x="0px"
	 y="0px" viewBox="0 0 58.2 53.4" style="enable-background:new 0 0 58.2 53.4;" xml:space="preserve">
<style type="text/css">
	.st0{fill:#5BA998;}
	.st1{fill:#BFC0C0;}
	.st2{fill:#403937;}
	.st3{fill:#FFFFFF;}
	.st4{fill:#A5CABE;}
	.st5{fill:#96908D;}
	.st6{fill:none;}
	.st7{fill:none;stroke:#FFFFFF;stroke-linecap:round;stroke-linejoin:round;stroke-miterlimit:10;}
</style>
<circle class="st0" cx="29" cy="27.6" r="25.2"/>
<g>
	<rect x="35.9" y="30" transform="matrix(0.7068 -0.7074 0.7074 0.7068 -13.0868 36.8829)" class="st1" width="4.2" height="8.4"/>
	<ellipse transform="matrix(0.7071 -0.7071 0.7071 0.7071 -8.066 24.7348)" class="st2" cx="25.8" cy="22.1" rx="17.1" ry="17.1"/>
	<path class="st3" d="M25.8,35.4c-3.6,0-6.9-1.4-9.4-3.9c-5.2-5.2-5.2-13.6,0-18.8c2.5-2.5,5.8-3.9,9.4-3.9s6.9,1.4,9.4,3.9
		c5.2,5.2,5.2,13.6,0,18.8C32.7,34,29.4,35.4,25.8,35.4z"/>
	<path class="st4" d="M25.8,34.6c-3.3,0-6.5-1.3-8.9-3.7c-4.9-4.9-4.9-12.8,0-17.7c2.4-2.4,5.5-3.7,8.9-3.7s6.5,1.3,8.9,3.7
		c4.9,4.9,4.9,12.8,0,17.7C32.3,33.3,29.2,34.6,25.8,34.6z"/>
	<path class="st5" d="M38,36.2c-0.5,0.5-0.5,1.4,0,2L51.8,52c0.5,0.5,1.4,0.5,2,0l1-1L38.9,35.2L38,36.2z"/>
	<path class="st2" d="M39.9,34.2l-1,1L54.7,51l1-1c0.5-0.5,0.5-1.4,0-2L41.9,34.2C41.4,33.7,40.5,33.7,39.9,34.2z"/>
</g>
<rect x="8.9" y="5.1" class="st6" width="47.5" height="47.5"/>
<g>
	<path class="st7" d="M29.9,31.9c-0.6,0.3-1.3,0.5-2,0.6"/>
	<path class="st7" d="M35.7,26.2c-0.3,0.6-0.6,1.2-1,1.8c-0.4,0.6-0.8,1.1-1.3,1.6c-0.5,0.5-1,0.9-1.6,1.3"/>
</g>
</svg>
