<?xml version="1.0" encoding="utf-8"?>
<!-- Generator: Adobe Illustrator 21.1.0, SVG Export Plug-In . SVG Version: 6.00 Build 0)  -->
<svg version="1.1" id="レイヤー_1" xmlns="http://www.w3.org/2000/svg" xmlns:xlink="http://www.w3.org/1999/xlink" x="0px"
	 y="0px" viewBox="0 0 58.2 53.4" style="enable-background:new 0 0 58.2 53.4;" xml:space="preserve">
<style type="text/css">
	.st0{fill:#5BA998;}
	.st1{fill:#C9CACA;}
	.st2{fill:#DCDDDD;}
	.st3{fill:#EFEFEF;}
	.st4{fill:#403937;}
	.st5{fill:none;}
	.st6{fill:#FFFFFF;}
	.st7{fill:#8FC31F;}
	.st8{fill:#B5B5B6;}
	.st9{fill:#67AF28;}
</style>
<circle class="st0" cx="29" cy="27.6" r="25.2"/>
<rect x="5.5" y="41.6" class="st1" width="48.2" height="11.3"/>
<rect x="8.4" y="44.4" class="st2" width="42.5" height="5.7"/>
<polygon class="st3" points="50.9,18.9 8.4,18.9 5.5,38.7 53.7,38.7 "/>
<polygon class="st4" points="44,29.4 46.6,29.4 46.3,27 43.8,27 "/>
<polygon class="st4" points="28.4,27 28.3,29.4 30.9,29.4 30.9,27 "/>
<polygon class="st4" points="22.2,27 22.1,29.4 24.7,29.4 24.8,27 "/>
<polygon class="st4" points="19.1,27 19,29.4 21.5,29.4 21.7,27 "/>
<polygon class="st4" points="31.5,27 31.5,29.4 34.1,29.4 34,27 "/>
<polygon class="st4" points="34.5,27 34.6,29.4 37.2,29.4 37.1,27 "/>
<polygon class="st4" points="43.7,26.5 46.3,26.5 46,24.2 43.5,24.2 "/>
<polygon class="st4" points="40.9,29.4 43.5,29.4 43.3,27 40.7,27 "/>
<polygon class="st4" points="37.6,27 37.7,29.4 40.3,29.4 40.2,27 "/>
<polygon class="st5" points="25.3,27 25.2,29.4 27.8,29.4 27.8,27 "/>
<polygon class="st4" points="30.9,23.6 30.9,21.4 28.4,21.4 28.4,23.6 "/>
<polygon class="st4" points="33.9,23.6 33.9,21.4 31.4,21.4 31.4,23.6 "/>
<polygon class="st5" points="27.9,23.6 27.9,21.4 25.4,21.4 25.4,23.6 "/>
<polygon class="st4" points="36.9,23.6 36.8,21.4 34.4,21.4 34.4,23.6 "/>
<polygon class="st4" points="21.8,23.6 22,21.4 19.5,21.4 19.3,23.6 "/>
<polygon class="st4" points="46,23.6 45.7,21.4 43.3,21.4 43.5,23.6 "/>
<polygon class="st4" points="16,27 15.8,29.4 18.4,29.4 18.6,27 "/>
<polygon class="st4" points="39.9,23.6 39.8,21.4 37.3,21.4 37.4,23.6 "/>
<polygon class="st4" points="49,23.6 48.7,21.4 46.3,21.4 46.5,23.6 "/>
<polygon class="st4" points="43,23.6 42.8,21.4 40.3,21.4 40.5,23.6 "/>
<polygon class="st4" points="24.9,23.6 24.9,21.4 22.5,21.4 22.4,23.6 "/>
<polygon class="st4" points="44.3,32.4 46.9,32.4 46.7,30 44.1,30 "/>
<polygon class="st4" points="24.8,26.5 24.8,24.2 22.3,24.2 22.2,26.5 "/>
<polygon class="st4" points="30.9,26.5 30.9,24.2 28.4,24.2 28.4,26.5 "/>
<polygon class="st4" points="18.6,26.5 18.8,24.2 16.3,24.2 16.1,26.5 "/>
<polygon class="st4" points="21.7,26.5 21.8,24.2 19.3,24.2 19.2,26.5 "/>
<polygon class="st5" points="15.8,24.2 13.2,24.2 13,26.5 15.6,26.5 "/>
<polygon class="st4" points="43.2,26.5 43,24.2 40.5,24.2 40.7,26.5 "/>
<polygon class="st4" points="34,26.5 33.9,24.2 31.4,24.2 31.4,26.5 "/>
<polygon class="st4" points="40.1,26.5 40,24.2 37.5,24.2 37.6,26.5 "/>
<polygon class="st4" points="37.1,26.5 37,24.2 34.4,24.2 34.5,26.5 "/>
<polygon class="st5" points="27.8,26.5 27.9,24.2 25.4,24.2 25.3,26.5 "/>
<polygon class="st4" points="31.5,30 31.5,32.4 34.2,32.4 34.1,30 "/>
<polygon class="st4" points="34.6,30 34.7,32.4 37.3,32.4 37.2,30 "/>
<polygon class="st4" points="37.8,30 37.9,32.4 40.5,32.4 40.4,30 "/>
<polygon class="st4" points="40.9,30 41.1,32.4 43.7,32.4 43.5,30 "/>
<polygon class="st5" points="15.5,27 12.9,27 12.7,29.4 15.3,29.4 "/>
<polygon class="st4" points="28.3,30 28.3,32.4 31,32.4 30.9,30 "/>
<polygon class="st4" points="15.8,30 15.6,32.4 18.2,32.4 18.4,30 "/>
<polygon class="st5" points="12.6,30 12.4,32.4 15,32.4 15.2,30 "/>
<polygon class="st5" points="25.2,30 25.1,32.4 27.8,32.4 27.8,30 "/>
<polygon class="st4" points="22.1,30 21.9,32.4 24.6,32.4 24.7,30 "/>
<polygon class="st4" points="18.9,30 18.8,32.4 21.4,32.4 21.5,30 "/>
<polygon class="st4" points="37.9,33 38.1,35.6 40.7,35.6 40.6,33 "/>
<polygon class="st4" points="34.7,33 34.8,35.6 37.5,35.6 37.4,33 "/>
<polygon class="st4" points="41.1,33 41.3,35.6 44,35.6 43.8,33 "/>
<polygon class="st4" points="47.8,35.6 50.5,35.6 50.2,33 47.5,33 "/>
<polygon class="st4" points="44.3,33 44.6,35.6 47.3,35.6 47,33 "/>
<polygon class="st4" points="12.4,27 9.9,27 9.6,29.4 12.2,29.4 "/>
<polygon class="st4" points="31.5,33 31.5,35.6 34.2,35.6 34.2,33 "/>
<polygon class="st4" points="12.1,30 9.5,30 9.2,32.4 11.8,32.4 "/>
<polygon class="st4" points="15.5,33 15.3,35.6 18,35.6 18.2,33 "/>
<polygon class="st4" points="9.1,33 8.8,35.6 11.5,35.6 11.8,33 "/>
<polygon class="st4" points="47.5,32.4 50.1,32.4 49.8,30 47.2,30 "/>
<polygon class="st4" points="28.3,33 28.3,35.6 31,35.6 31,33 "/>
<polygon class="st5" points="25.1,33 25,35.6 27.7,35.6 27.8,33 "/>
<polygon class="st4" points="21.9,33 21.8,35.6 24.5,35.6 24.6,33 "/>
<polygon class="st4" points="18.7,33 18.5,35.6 21.2,35.6 21.4,33 "/>
<polygon class="st5" points="12.3,33 12,35.6 14.7,35.6 15,33 "/>
<polygon class="st4" points="46.6,24.2 46.8,26.5 49.4,26.5 49.1,24.2 "/>
<polygon class="st4" points="18.8,23.6 19,21.4 16.5,21.4 16.3,23.6 "/>
<polygon class="st5" points="15.8,23.6 16,21.4 13.5,21.4 13.3,23.6 "/>
<polygon class="st4" points="13,21.4 10.6,21.4 10.3,23.6 12.8,23.6 "/>
<polygon class="st4" points="12.7,24.2 10.2,24.2 9.9,26.5 12.5,26.5 "/>
<polygon class="st4" points="47.1,29.4 49.7,29.4 49.4,27 46.9,27 "/>
<rect x="26.8" y="7.6" class="st1" width="24.1" height="11.3"/>
<rect x="29.6" y="10.4" class="st6" width="18.4" height="5.7"/>
<rect x="30.2" y="11" class="st7" width="17.3" height="4.5"/>
<circle class="st8" cx="29.5" cy="47.2" r="1.4"/>
<rect x="5.5" y="38.7" class="st2" width="48.2" height="2.8"/>
<path class="st2" d="M8.4,18.9V7.6c0-1.6,1.3-2.8,2.8-2.8h12.9c1.6,0,2.8,1.3,2.8,2.8v11.3H8.4z"/>
<g>
	<polygon class="st7" points="30.2,11 30.2,15.5 36.6,15.5 41.1,11 	"/>
	<polygon class="st9" points="36.6,15.5 47.5,15.5 47.5,11 41.1,11 	"/>
</g>
<rect x="11.9" y="4.7" class="st8" width="11.3" height="11.3"/>
<rect x="13.3" y="1.9" class="st6" width="8.5" height="14.2"/>
</svg>
