<?xml version="1.0" encoding="utf-8"?>
<!-- Generator: Adobe Illustrator 21.1.0, SVG Export Plug-In . SVG Version: 6.00 Build 0)  -->
<svg version="1.1" id="レイヤー_1" xmlns="http://www.w3.org/2000/svg" xmlns:xlink="http://www.w3.org/1999/xlink" x="0px"
	 y="0px" viewBox="0 0 58.2 53.4" style="enable-background:new 0 0 58.2 53.4;" xml:space="preserve">
<style type="text/css">
	.st0{fill:#61BBC0;}
	.st1{fill:#F4D089;stroke:#B29251;stroke-linecap:round;stroke-linejoin:round;stroke-miterlimit:10;}
	.st2{fill:#F2C66B;stroke:#B29251;stroke-linecap:round;stroke-linejoin:round;stroke-miterlimit:10;}
	.st3{fill:#F4D089;}
	.st4{fill:#F2C66B;}
	.st5{fill:#FFFFFF;}
</style>
<path class="st0" d="M52.9,25.6c0,12.8-10.4,23.1-23.2,23.1c-12.8,0-23.2-10.3-23.2-23.1c0-12.8,10.4-23.2,23.2-23.2
	C42.5,2.5,52.9,12.8,52.9,25.6z"/>
<g>
	<path class="st1" d="M39.9,13.4c-0.9,0-2,0.1-3.1,0.1c-0.9,0-1.7,0-2.4-0.1c0,0-0.1,0-0.1,0c-1.2,0-1.9,0.8-1.9,1.7
		c0,0.8,0.6,1.6,1.8,1.7c0.5,0,0.8,0.1,0.8,0.4c0,0.4-3.6,6.6-3.8,6.9h-1.9c-1.5-2.4-3.9-6.8-3.9-7c0-0.2,0.1-0.3,0.5-0.3
		c1.3-0.1,1.9-1,1.9-1.8c0-0.8-0.6-1.5-1.8-1.5c0,0-0.1,0-0.1,0c-0.9,0-2,0.1-3.1,0.1c-0.9,0-1.8,0-2.5-0.1c0,0-0.1,0-0.1,0
		c-1.1,0-1.8,0.9-1.8,1.7c0,1.3,1,1.6,2,1.6c0.4,0,0.7,0.1,1,0.5c1,1.7,2.5,4.3,4.1,6.8c-1.6,0-2.9,0-3.6-0.1c0,0,0,0-0.1,0
		c-1,0-1.5,0.8-1.5,1.6c0,0.4,0.3,1.7,1.7,1.7c1.3-0.1,3.3-0.1,5.4-0.1l0.8,1.4c0.3,0.5,0.4,0.6,0.4,1.3c-2.9,0-5.5,0-6.6-0.1
		c0,0,0,0-0.1,0c-1,0-1.5,0.8-1.5,1.7c0,0.9,0.6,1.7,1.7,1.7C23.2,33,25.5,33,28,33c3.9-6.5,7.7-13.1,12-19.5
		C39.9,13.4,39.9,13.4,39.9,13.4z"/>
	<path class="st2" d="M40,13.4c-4.2,6.4-8,13-12,19.5c0.1,0,0.1,0,0.2,0v3.1c0,0.5-0.2,0.8-0.8,0.8l-0.4,0c0,0-0.1,0-0.1,0
		c-1.1,0-1.7,0.8-1.7,1.7c0,0.9,0.6,1.8,1.7,1.8c0,0,0.1,0,0.1,0c0.8,0,1.9-0.1,3.1-0.1c1,0,2,0,2.8,0.1c0,0,0.1,0,0.1,0
		c1.2,0,1.8-0.9,1.8-1.8c0-0.7-0.4-1.8-1.9-1.8l-0.4,0c-0.5,0-0.8-0.3-0.8-0.8V33c2.2,0,4.2,0,5.9,0c1.1,0,1.7-0.8,1.7-1.7
		c0-0.8-0.5-1.7-1.7-1.7c0,0,0,0-0.1,0c-1.2,0-3.4,0.1-5.9,0.1c0-0.9,0.2-1.1,0.4-1.4c0.2-0.4,0.5-0.8,0.8-1.2l4.8,0.1h0
		c1.1,0,1.7-0.8,1.7-1.7c0-0.8-0.6-1.6-1.7-1.6h0c-0.6,0-1.6,0-2.8,0c1.5-2.4,3-5,4-6.7c0.3-0.4,0.5-0.5,0.9-0.5c0,0,0.1,0,0.1,0
		c1.2,0,1.8-0.8,1.8-1.6C41.8,13.9,40.9,13.5,40,13.4z"/>
</g>
<g>
	<path class="st3" d="M39.9,13.4c-0.9,0-2,0.1-3.1,0.1c-0.9,0-1.7,0-2.4-0.1c0,0-0.1,0-0.1,0c-1.2,0-1.9,0.8-1.9,1.7
		c0,0.8,0.6,1.6,1.8,1.7c0.5,0,0.8,0.1,0.8,0.4c0,0.4-3.6,6.6-3.8,6.9h-1.9c-1.5-2.4-3.9-6.8-3.9-7c0-0.2,0.1-0.3,0.5-0.3
		c1.3-0.1,1.9-1,1.9-1.8c0-0.8-0.6-1.5-1.8-1.5c0,0-0.1,0-0.1,0c-0.9,0-2,0.1-3.1,0.1c-0.9,0-1.8,0-2.5-0.1c0,0-0.1,0-0.1,0
		c-1.1,0-1.8,0.9-1.8,1.7c0,1.3,1,1.6,2,1.6c0.4,0,0.7,0.1,1,0.5c1,1.7,2.5,4.3,4.1,6.8c-1.6,0-2.9,0-3.6-0.1c0,0,0,0-0.1,0
		c-1,0-1.5,0.8-1.5,1.6c0,0.4,0.3,1.7,1.7,1.7c1.3-0.1,3.3-0.1,5.4-0.1l0.8,1.4c0.3,0.5,0.4,0.6,0.4,1.3c-2.9,0-5.5,0-6.6-0.1
		c0,0,0,0-0.1,0c-1,0-1.5,0.8-1.5,1.7c0,0.9,0.6,1.7,1.7,1.7C23.2,33,25.5,33,28,33c3.9-6.5,7.7-13.1,12-19.5
		C39.9,13.4,39.9,13.4,39.9,13.4z"/>
	<path class="st4" d="M40,13.4c-4.2,6.4-8,13-12,19.5c0.1,0,0.1,0,0.2,0v3.1c0,0.5-0.2,0.8-0.8,0.8l-0.4,0c0,0-0.1,0-0.1,0
		c-1.1,0-1.7,0.8-1.7,1.7c0,0.9,0.6,1.8,1.7,1.8c0,0,0.1,0,0.1,0c0.8,0,1.9-0.1,3.1-0.1c1,0,2,0,2.8,0.1c0,0,0.1,0,0.1,0
		c1.2,0,1.8-0.9,1.8-1.8c0-0.7-0.4-1.8-1.9-1.8l-0.4,0c-0.5,0-0.8-0.3-0.8-0.8V33c2.2,0,4.2,0,5.9,0c1.1,0,1.7-0.8,1.7-1.7
		c0-0.8-0.5-1.7-1.7-1.7c0,0,0,0-0.1,0c-1.2,0-3.4,0.1-5.9,0.1c0-0.9,0.2-1.1,0.4-1.4c0.2-0.4,0.5-0.8,0.8-1.2l4.8,0.1h0
		c1.1,0,1.7-0.8,1.7-1.7c0-0.8-0.6-1.6-1.7-1.6h0c-0.6,0-1.6,0-2.8,0c1.5-2.4,3-5,4-6.7c0.3-0.4,0.5-0.5,0.9-0.5c0,0,0.1,0,0.1,0
		c1.2,0,1.8-0.8,1.8-1.6C41.8,13.9,40.9,13.5,40,13.4z"/>
</g>
<path class="st5" d="M43.8,19.5c-1.3,0.2-1.5,0.3-1.7,1.7c-0.2-1.3-0.3-1.5-1.7-1.7c1.3-0.2,1.5-0.3,1.7-1.7
	C42.3,19.2,42.4,19.3,43.8,19.5z"/>
<path class="st5" d="M46,22.5c-1.1,0.1-1.2,0.3-1.3,1.3c-0.1-1.1-0.3-1.2-1.3-1.3c1.1-0.1,1.2-0.3,1.3-1.3
	C44.8,22.2,45,22.3,46,22.5z"/>
<path class="st5" d="M46.2,18.9c-0.8,0.1-0.9,0.2-1,1c-0.1-0.8-0.2-0.9-1-1c0.8-0.1,0.9-0.2,1-1C45.4,18.7,45.4,18.8,46.2,18.9z"/>
</svg>
